<?xml version="1.0" encoding="UTF-8" standalone="no"?>
<svg
   xmlns:dc="http://purl.org/dc/elements/1.1/"
   xmlns:cc="http://creativecommons.org/ns#"
   xmlns:rdf="http://www.w3.org/1999/02/22-rdf-syntax-ns#"
   xmlns:svg="http://www.w3.org/2000/svg"
   xmlns="http://www.w3.org/2000/svg"
   xmlns:xlink="http://www.w3.org/1999/xlink"
   xmlns:sodipodi="http://sodipodi.sourceforge.net/DTD/sodipodi-0.dtd"
   xmlns:inkscape="http://www.inkscape.org/namespaces/inkscape"
   version="1.1"
   id="Layer_1"
   width="695px"
   height="185px"
   viewBox="-3.5 -3.5 695 185"
   enable-background="new -3.5 -3.5 695 185"
   xml:space="preserve"
   inkscape:version="0.48.4 r9939"
   sodipodi:docname="AngularJS_Chile.svg"
   inkscape:export-filename="/Desarrollos/angularjs.cl/resources/AngularJS_Chile.png"
   inkscape:export-xdpi="149.83784"
   inkscape:export-ydpi="149.83784"><metadata
     id="metadata66"><rdf:RDF><cc:Work
         rdf:about=""><dc:format>image/svg+xml</dc:format><dc:type
           rdf:resource="http://purl.org/dc/dcmitype/StillImage" /><dc:title></dc:title></cc:Work></rdf:RDF></metadata><defs
     id="defs64" /><sodipodi:namedview
     pagecolor="#ffffff"
     bordercolor="#666666"
     borderopacity="1"
     objecttolerance="10"
     gridtolerance="10"
     guidetolerance="10"
     inkscape:pageopacity="0"
     inkscape:pageshadow="2"
     inkscape:window-width="1920"
     inkscape:window-height="1028"
     id="namedview62"
     showgrid="false"
     inkscape:zoom="1.9148085"
     inkscape:cx="140.59998"
     inkscape:cy="9.0615827"
     inkscape:window-x="0"
     inkscape:window-y="27"
     inkscape:window-maximized="1"
     inkscape:current-layer="Layer_1" /><filter
     id="googleDropShadow"><feOffset
       result="offOut"
       in="SourceGraphic"
       dx="0.3"
       dy="0.5"
       id="feOffset4" /><feGaussianBlur
       stdDeviation="0.25"
       result="blurOut"
       in="offOut"
       id="feGaussianBlur6" /><feColorMatrix
       type="matrix"
       result="blurTransOut"
       in="blurOut"
       values="1 0 0 0 0 0 1 0 0 0 0 0 1 0 0 0 0 0 .8 0"
       id="feColorMatrix8" /><feBlend
       in="SourceGraphic"
       mode="normal"
       in2="blurTransOut"
       id="feBlend10" /></filter><g
     id="g12"
     transform="translate(-0.58323,0)"><polygon
       points="186.407,57.715 229.733,114.75 229.733,57.715 238.394,57.715 238.394,128.516 229.236,128.516 185.914,70.98 185.914,128.516 177.248,128.516 177.248,57.715 "
       id="polygon14"
       style="fill:#cccccc" /><path
       d="m 308.698,125.743 c -5.708,2.182 -11.867,3.269 -18.468,3.269 -25.643,0 -38.47,-12.294 -38.47,-36.886 0,-23.271 12.378,-34.908 37.13,-34.908 7.102,0 13.705,0.993 19.807,2.976 v 7.921 c -6.103,-2.311 -12.378,-3.468 -18.817,-3.468 -19.306,0 -28.957,9.163 -28.957,27.479 0,19.638 9.5,29.462 28.518,29.462 3.033,0 6.399,-0.398 10.099,-1.193 v -24.06 h 9.158 l 0,29.408 0,0 z"
       id="path16"
       inkscape:connector-curvature="0"
       style="fill:#cccccc" /><path
       d="M 323.305,101.186 V 57.718 h 9.153 v 43.467 c 0,13.599 6.769,20.406 20.304,20.406 13.531,0 20.3,-6.808 20.3,-20.406 V 57.718 h 9.158 v 43.467 c 0,18.557 -9.819,27.83 -29.458,27.83 -19.638,0.001 -29.457,-9.273 -29.457,-27.829 z"
       id="path18"
       inkscape:connector-curvature="0"
       style="fill:#cccccc" /><polygon
       points="444.758,121.092 444.758,128.516 398.563,128.516 398.563,57.715 407.717,57.715 407.717,121.092 "
       id="polygon20"
       style="fill:#cccccc" /><polygon
       points="483.669,48.376 518.87,128.518 508.723,128.518 499.56,106.234 476.148,106.234 478.671,98.816 496.495,98.816 483.275,66.728 457.973,128.518 448.469,128.518 "
       id="polygon22"
       style="fill:#cccccc" /><path
       d="M 528.526,128.516 V 57.715 h 30.203 c 13.469,0 20.201,5.663 20.201,16.981 0,9.212 -6.581,16.029 -19.754,20.447 l 24.309,33.373 H 571.404 L 548.88,96.682 v -5.986 c 13.53,-2.151 20.295,-7.349 20.295,-15.598 0,-6.533 -3.762,-9.806 -11.283,-9.806 h -20.206 v 63.227 h -9.159 l -0.001,-0.003 0,0 z"
       id="path24"
       inkscape:connector-curvature="0"
       style="fill:#cccccc" /><path
       d="m 617.798,57.715 v 50.404 c 0,13.598 -8.005,20.396 -24.017,20.396 v -7.425 c 9.904,0 14.857,-4.329 14.857,-12.972 V 57.715 h 9.16 z"
       id="path26"
       inkscape:connector-curvature="0"
       style="fill:#cccccc" /><path
       d="m 634.137,126.04 v -8.418 c 7.429,2.64 15.447,3.965 24.063,3.965 12.18,0 18.272,-4.457 18.272,-13.376 0,-7.58 -4.493,-11.385 -13.47,-11.385 h -9.113 c -14.817,0 -22.233,-6.432 -22.233,-19.306 0,-13.531 9.495,-20.304 28.479,-20.304 8.249,0 15.922,0.998 23.021,2.976 v 8.417 c -7.101,-2.643 -14.772,-3.964 -23.021,-3.964 -12.875,0 -19.311,4.293 -19.311,12.875 0,7.588 4.354,11.385 13.065,11.385 h 9.113 c 15.08,0 22.628,6.441 22.628,19.306 0,13.868 -9.142,20.801 -27.432,20.801 -8.614,0 -16.632,-0.994 -24.061,-2.972 z"
       id="path28"
       inkscape:connector-curvature="0"
       style="fill:#cccccc" /><polygon
       points="188.723,55.402 232.045,112.438 232.045,55.402 240.711,55.402 240.711,126.203 231.552,126.203 188.227,68.667 188.227,126.203 179.565,126.203 179.565,55.402 "
       id="polygon30" /><path
       d="m 311.015,123.43 c -5.708,2.182 -11.864,3.268 -18.467,3.268 -25.645,0 -38.47,-12.293 -38.47,-36.885 0,-23.271 12.378,-34.909 37.135,-34.909 7.096,0 13.7,0.994 19.802,2.976 v 7.92 c -6.103,-2.311 -12.378,-3.468 -18.813,-3.468 -19.307,0 -28.96,9.163 -28.96,27.479 0,19.639 9.504,29.463 28.517,29.463 3.034,0 6.404,-0.396 10.103,-1.193 V 94.02 h 9.154 l -0.001,29.41 0,0 z"
       id="path32"
       inkscape:connector-curvature="0" /><path
       d="M 325.621,98.871 V 55.398 h 9.153 V 98.87 c 0,13.598 6.769,20.401 20.305,20.401 13.53,0 20.299,-6.804 20.299,-20.401 V 55.398 h 9.158 V 98.87 c 0,18.556 -9.819,27.825 -29.457,27.825 -19.639,0 -29.458,-9.267 -29.458,-27.824 z"
       id="path34"
       inkscape:connector-curvature="0" /><polygon
       points="447.071,118.775 447.071,126.199 400.88,126.199 400.88,55.398 410.034,55.398 410.034,118.775 "
       id="polygon36" /><polygon
       points="485.987,46.056 521.188,126.202 511.035,126.202 501.877,103.92 478.46,103.92 480.989,96.496 498.808,96.496 485.592,64.408 460.29,126.202 450.785,126.202 "
       id="polygon38" /><path
       d="M 530.843,126.203 V 55.402 h 30.202 c 13.47,0 20.196,5.659 20.196,16.982 0,9.207 -6.577,16.028 -19.749,20.445 l 24.31,33.374 H 573.716 L 551.195,94.368 v -5.992 c 13.531,-2.151 20.299,-7.344 20.299,-15.598 0,-6.533 -3.766,-9.801 -11.292,-9.801 h -20.2 v 63.226 c 0,0 -9.159,0 -9.159,0 z"
       id="path40"
       inkscape:connector-curvature="0" /><path
       d="m 620.115,55.398 v 50.405 c 0,13.602 -8.005,20.396 -24.016,20.396 v -7.424 c 9.903,0 14.856,-4.33 14.856,-12.973 V 55.398 h 9.16 z"
       id="path42"
       inkscape:connector-curvature="0"
       style="fill:#a6120d" /><path
       d="m 636.45,123.723 v -8.416 c 7.43,2.639 15.447,3.965 24.064,3.965 12.179,0 18.271,-4.459 18.271,-13.373 0,-7.584 -4.492,-11.385 -13.47,-11.385 h -9.113 c -14.817,0 -22.232,-6.436 -22.232,-19.311 0,-13.531 9.491,-20.303 28.478,-20.303 8.249,0 15.923,0.998 23.022,2.976 v 8.418 c -7.102,-2.644 -14.773,-3.965 -23.022,-3.965 -12.875,0 -19.311,4.293 -19.311,12.875 0,7.588 4.351,11.385 13.065,11.385 h 9.113 c 15.079,0 22.628,6.438 22.628,19.31 0,13.865 -9.141,20.797 -27.431,20.797 -8.614,-0.001 -16.633,-0.995 -24.062,-2.973 z"
       id="path44"
       inkscape:connector-curvature="0"
       style="fill:#a6120d" /></g><polygon
     style="fill:#b3b3b3"
     id="polygon50"
     points="13.621,138.311 83.331,176.625 153.4,137.792 166.462,29.46 83.243,0.875 0.554,29.975 " /><polygon
     style="fill:#a6120d"
     id="polygon52"
     points="83.05,167.471 146.041,132.609 158.214,35.721 83.05,10.089 " /><polygon
     style="fill:#dd1b16"
     id="polygon54"
     points="83.049,167.471 83.049,10.086 9.833,36.183 21.03,133.072 " /><path
     d="m 13655.065,2315.6149 -1020,0 0,-1000 1020,0 z"
     id="path4"
     inkscape:connector-curvature="0"
     style="fill:#d52b1e"
     sodipodi:nodetypes="ccccc" /><path
     d="m 13135.065,1815.6149 520,0 0,-500 -1020,0 z"
     id="path6"
     inkscape:connector-curvature="0"
     style="fill:#ffffff"
     sodipodi:nodetypes="ccccc" /><path
     style="fill:#0039a6"
     inkscape:connector-curvature="0"
     d="m 13135.065,1815.6149 h -500 v -500 h 500 z"
     id="path8" /><g
     transform="matrix(62.5,0,0,62.5,12885.065,1565.6149)"
     id="f"><g
       id="t"><path
         style="fill:#ffffff"
         inkscape:connector-curvature="0"
         d="M 0,-2 V 0 H 1 z"
         transform="matrix(0.95105652,0.30901699,-0.30901699,0.95105652,-0.61803399,-0.09788697)"
         id="o" /><use
         height="1052.3622"
         width="744.09448"
         y="0"
         x="0"
         xlink:href="#o"
         transform="scale(-1,1)"
         id="use13" /></g><use
       height="1052.3622"
       width="744.09448"
       y="0"
       x="0"
       xlink:href="#t"
       transform="matrix(0.30901699,0.95105652,-0.95105652,0.30901699,0,0)"
       id="use15" /></g><use
     height="1052.3622"
     width="744.09448"
     y="0"
     x="0"
     xlink:href="#t"
     transform="matrix(19.313562,-59.441032,59.441032,19.313562,12885.065,1565.6149)"
     id="use17" /><use
     height="1052.3622"
     width="744.09448"
     y="0"
     x="0"
     xlink:href="#f"
     transform="matrix(-50.563562,36.736578,-36.736578,-50.563562,700090.13,-396081.26)"
     id="use19" /><path
     d="m 13115.065,1788.9482 -1020,0 0,-1000.00001 1020,0 z"
     id="path4-5"
     inkscape:connector-curvature="0"
     style="fill:#d52b1e"
     sodipodi:nodetypes="ccccc" /><path
     d="m 12595.065,1288.9482 520,0 0,-500.00001 -1020,0 z"
     id="path6-0"
     inkscape:connector-curvature="0"
     style="fill:#ffffff"
     sodipodi:nodetypes="ccccc" /><path
     style="fill:#0039a6"
     inkscape:connector-curvature="0"
     d="m 12595.065,1288.9482 h -500 V 788.94819 h 500 z"
     id="path8-3" /><g
     transform="matrix(62.5,0,0,62.5,12345.065,1038.9482)"
     id="f-5"><g
       id="t-8"><path
         style="fill:#ffffff"
         inkscape:connector-curvature="0"
         d="M 0,-2 V 0 H 1 z"
         transform="matrix(0.95105652,0.30901699,-0.30901699,0.95105652,-0.61803399,-0.09788697)"
         id="o-8" /><use
         height="1052.3622"
         width="744.09448"
         y="0"
         x="0"
         xlink:href="#o-8"
         transform="scale(-1,1)"
         id="use13-3" /></g><use
       height="1052.3622"
       width="744.09448"
       y="0"
       x="0"
       xlink:href="#t-8"
       transform="matrix(0.30901699,0.95105652,-0.95105652,0.30901699,0,0)"
       id="use15-1" /></g><use
     height="1052.3622"
     width="744.09448"
     y="0"
     x="0"
     xlink:href="#t-8"
     transform="matrix(19.313562,-59.441032,59.441032,19.313562,12345.065,1038.9482)"
     id="use17-1" /><use
     height="1052.3622"
     width="744.09448"
     y="0"
     x="0"
     xlink:href="#f-5"
     transform="matrix(-50.563562,36.736578,-36.736578,-50.563562,652897.87,-403400.32)"
     id="use19-1" /><path
     d="m 12931.732,1322.2815 -1020,0 0,-999.99997 1020,0 z"
     id="path4-3"
     inkscape:connector-curvature="0"
     style="fill:#d52b1e"
     sodipodi:nodetypes="ccccc" /><path
     d="m 12411.732,822.28153 520,0 0,-500 -1020,0 z"
     id="path6-7"
     inkscape:connector-curvature="0"
     style="fill:#ffffff"
     sodipodi:nodetypes="ccccc" /><path
     style="fill:#0039a6"
     inkscape:connector-curvature="0"
     d="m 12411.732,822.28153 h -500 v -500 h 500 z"
     id="path8-4" /><g
     transform="matrix(62.5,0,0,62.5,12161.732,572.28153)"
     id="f-3"><g
       id="t-7"><path
         style="fill:#ffffff"
         inkscape:connector-curvature="0"
         d="M 0,-2 V 0 H 1 z"
         transform="matrix(0.95105652,0.30901699,-0.30901699,0.95105652,-0.61803399,-0.09788697)"
         id="o-9" /><use
         height="1052.3622"
         width="744.09448"
         y="0"
         x="0"
         xlink:href="#o-9"
         transform="scale(-1,1)"
         id="use13-4" /></g><use
       height="1052.3622"
       width="744.09448"
       y="0"
       x="0"
       xlink:href="#t-7"
       transform="matrix(0.30901699,0.95105652,-0.95105652,0.30901699,0,0)"
       id="use15-5" /></g><use
     height="1052.3622"
     width="744.09448"
     y="0"
     x="0"
     xlink:href="#t-7"
     transform="matrix(19.313562,-59.441032,59.441032,19.313562,12161.732,572.28153)"
     id="use17-5" /><use
     height="1052.3622"
     width="744.09448"
     y="0"
     x="0"
     xlink:href="#f-3"
     transform="matrix(-50.563562,36.736578,-36.736578,-50.563562,626300.81,-420728.27)"
     id="use19-0" /><path
     d="m 83.25188,88.432332 68.40845,0 6.55877,-52.682534 -75.024525,-25.557725 z"
     id="path6-9"
     inkscape:connector-curvature="0"
     style="opacity:1;fill:#ffffff"
     sodipodi:nodetypes="ccccc" /><path
     sodipodi:nodetypes="ccccc"
     d="m 83.25188,88.432332 -67.29045,0 L 9.8379899,36.220667 83.11415,10.20637 z"
     id="path8-6"
     inkscape:connector-curvature="0"
     style="opacity:1;fill:#0039a6" /><g
     id="g3307"
     transform="translate(-24.929123,-84.566198)"><g
       transform="matrix(9.761029,0,0,9.761029,65.508431,137.4798)"
       id="f-4-2"><g
         id="t-86-6"><path
           style="fill:#ffffff"
           inkscape:connector-curvature="0"
           id="o-5-8"
           transform="matrix(0.95105652,0.30901699,-0.30901699,0.95105652,-0.61803399,-0.09788697)"
           d="M 0,-2 V 0 H 1 z" /><use
           height="1052.3622"
           width="744.09448"
           y="0"
           x="0"
           id="use13-2-3"
           transform="scale(-1,1)"
           xlink:href="#o-5-8" /></g><use
         height="1052.3622"
         width="744.09448"
         y="0"
         x="0"
         id="use15-2-9"
         transform="matrix(0.30901699,0.95105652,-0.95105652,0.30901699,0,5.0489042e-8)"
         xlink:href="#t-86-6" /></g><use
       height="1052.3622"
       width="744.09448"
       y="0"
       x="0"
       id="use17-9-1"
       transform="matrix(3.0163238,-9.2832903,9.2832903,3.0163238,65.508431,137.4798)"
       xlink:href="#t-86-6" /><use
       height="1052.3622"
       width="744.09448"
       y="0"
       x="0"
       id="use19-3-8"
       transform="matrix(-0.80901699,0.58778525,-0.58778525,-0.80901699,199.22899,209.42409)"
       xlink:href="#f-4-2" /></g><path
     style="fill:#f2f2f2"
     inkscape:connector-curvature="0"
     id="path56"
     d="m 103.74,93.871 -20.69,9.675 H 61.243 L 50.992,129.186 31.925,129.539 83.05,15.804 103.74,93.871 z M 101.74,89 83.187,52.271 67.969,88.368 h 15.08 L 101.74,89 z" /><polygon
     style="fill:#b3b3b3"
     id="polygon58"
     points="100.454,88.396 83.088,88.396 83.049,103.523 107.062,103.546 118.285,129.543 136.529,129.881 83.049,15.804 83.186,52.271 " /><text
     xml:space="preserve"
     style="font-size:40px;font-style:normal;font-variant:normal;font-weight:normal;font-stretch:normal;line-height:125%;letter-spacing:0px;word-spacing:0px;fill:#000000;fill-opacity:1;stroke:none;font-family:Droid Sans;-inkscape-font-specification:Droid Sans"
     x="230.63763"
     y="160.45193"
     id="text3345"
     sodipodi:linespacing="125%"
     transform="translate(-3.5,-3.5)"><tspan
       sodipodi:role="line"
       id="tspan3347"
       x="230.63763"
       y="160.45193" /></text>
<g
     id="g3380"
     transform="matrix(1.2467407,0,0,1.2467407,-167.10614,-33.449695)"><path
       sodipodi:nodetypes="csssccssssscccscccccccccccccccccccccccccccccccccccccccccccccccccccccccccccccccccccccccccc"
       inkscape:connector-curvature="0"
       id="path3360-6"
       d="m 568.94928,169.49734 c -8.88065,-1.59116 -13.26633,-7.88232 -12.64221,-18.13498 0.39149,-6.43114 2.66472,-10.27712 7.4738,-12.64463 4.07507,-2.00615 11.77075,-2.48421 17.20706,-1.06893 l 2.26818,0.5905 -0.0933,5.18679 c -1.19429,-0.36669 -1.17431,-0.36119 -2.98487,-0.68665 -2.70082,-0.4855 -6.61381,-0.91922 -9.29667,-0.46669 -4.59003,0.7742 -7.40125,3.39429 -8.20343,7.64571 -0.48313,2.56048 -0.25851,6.08181 0.53631,8.40772 0.7662,2.24217 3.29327,4.72851 5.63325,5.54244 2.37957,0.8277 8.35708,0.82901 11.16853,0.003 1.70621,-0.30014 1.74174,-0.26707 3.13314,-0.68611 l 0.10708,5.18864 -2.26818,0.59539 c -2.62233,0.68835 -9.46838,0.98872 -12.03865,0.52821 z m 19.9773,-16.35283 0,-16.36333 3.07824,0 3.07825,0 0,6.80455 0,6.80455 7.93865,0 7.93864,0 0,-6.80455 0,-6.80455 3.07825,0 3.07826,0 0,16.36333 0,16.36333 -3.07826,0 -3.07825,0 0,-6.96657 0,-6.96657 -7.93864,0 -7.93865,0 0,6.96657 0,6.96657 -3.07825,0 -3.07824,0 z m 34.99484,0 0,-16.36333 3.07824,0 3.07825,0 0,16.36333 0,16.36333 -3.07825,0 -3.07824,0 z m 12.96105,0 0,-16.36333 3.07825,0 3.07825,0 0,13.77112 0,13.77112 6.48053,0 6.48052,0 0,2.59221 0,2.59221 -9.55877,0 -9.55878,0 z m 24.626,0 0,-16.36333 11.1789,0 11.17891,0 0,2.59221 0,2.59221 -8.10066,0 -8.10065,0 0,4.21234 0,4.21234 7.77663,0 7.77663,0 0,2.75423 0,2.75422 -7.77663,0 -7.77663,0 0,4.21234 0,4.21235 8.26267,0 8.26267,0 0,2.59221 0,2.59221 -11.34092,0 -11.34092,0 z"
       style="fill:#cccccc" /><path
       sodipodi:nodetypes="csssccssssscccscccccccccccccccccccccccccccccccccccccccccccccccccccccccccccccccccccccccccc"
       inkscape:connector-curvature="0"
       id="path3360"
       d="m 570.11874,168.28235 c -8.88065,-1.59116 -13.26633,-7.88232 -12.64221,-18.13498 0.39149,-6.43114 2.66472,-10.27712 7.4738,-12.64463 4.07507,-2.00615 11.77075,-2.48421 17.20706,-1.06893 l 2.26818,0.5905 -0.0933,5.18679 c -1.19429,-0.36669 -1.17431,-0.36119 -2.98487,-0.68665 -2.70082,-0.4855 -6.61381,-0.91922 -9.29667,-0.46669 -4.59003,0.7742 -7.40125,3.39429 -8.20343,7.64571 -0.48313,2.56048 -0.25851,6.08181 0.53631,8.40772 0.7662,2.24217 3.29327,4.72851 5.63325,5.54244 2.37957,0.8277 8.35708,0.82901 11.16853,0.003 1.70621,-0.30014 1.74174,-0.26707 3.13314,-0.68611 l 0.10708,5.18864 -2.26818,0.59539 c -2.62233,0.68835 -9.46838,0.98872 -12.03865,0.52821 z m 19.9773,-16.35283 0,-16.36333 3.07824,0 3.07825,0 0,6.80455 0,6.80455 7.93865,0 7.93864,0 0,-6.80455 0,-6.80455 3.07825,0 3.07826,0 0,16.36333 0,16.36333 -3.07826,0 -3.07825,0 0,-6.96657 0,-6.96657 -7.93864,0 -7.93865,0 0,6.96657 0,6.96657 -3.07825,0 -3.07824,0 z m 34.99484,0 0,-16.36333 3.07824,0 3.07825,0 0,16.36333 0,16.36333 -3.07825,0 -3.07824,0 z m 12.96105,0 0,-16.36333 3.07825,0 3.07825,0 0,13.77112 0,13.77112 6.48053,0 6.48052,0 0,2.59221 0,2.59221 -9.55877,0 -9.55878,0 z m 24.626,0 0,-16.36333 11.1789,0 11.17891,0 0,2.59221 0,2.59221 -8.10066,0 -8.10065,0 0,4.21234 0,4.21234 7.77663,0 7.77663,0 0,2.75423 0,2.75422 -7.77663,0 -7.77663,0 0,4.21234 0,4.21235 8.26267,0 8.26267,0 0,2.59221 0,2.59221 -11.34092,0 -11.34092,0 z"
       style="fill:#030303" /></g></svg>